<?xml version="1.0" encoding="utf-8"?>
<!-- Generator: Adobe Illustrator 25.1.0, SVG Export Plug-In . SVG Version: 6.00 Build 0)  -->
<svg version="1.1" id="Camada_1" xmlns="http://www.w3.org/2000/svg" xmlns:xlink="http://www.w3.org/1999/xlink" x="0px" y="0px"
	 viewBox="0 0 223 140" style="enable-background:new 0 0 223 140;" xml:space="preserve">
<style type="text/css">
	.st0{fill:#FFFFFF;filter:url(#Adobe_OpacityMaskFilter);}
	.st1{mask:url(#path-1-inside-1_12_531_1_);fill:none;stroke:#FF6052;stroke-width:2;}
</style>
<defs>
	<filter id="Adobe_OpacityMaskFilter" filterUnits="userSpaceOnUse" x="-0.9" y="-0.6" width="224.9" height="141.4">
		<feColorMatrix  type="matrix" values="1 0 0 0 0  0 1 0 0 0  0 0 1 0 0  0 0 0 1 0"/>
	</filter>
</defs>
<mask maskUnits="userSpaceOnUse" x="-0.9" y="-0.6" width="224.9" height="141.4" id="path-1-inside-1_12_531_1_">
	<path class="st0" d="M0.3,53.2c7,29.1,25.2,54.3,50.8,69.9s56.2,20.5,85.3,13.6c29.1-7,54.3-25.2,69.9-50.8
		c15.7-25.5,20.5-56.2,13.6-85.3L110.1,26.9L0.3,53.2z"/>
</mask>
<path class="st1" d="M0.3,53.2c7,29.1,25.2,54.3,50.8,69.9s56.2,20.5,85.3,13.6c29.1-7,54.3-25.2,69.9-50.8
	c15.7-25.5,20.5-56.2,13.6-85.3L110.1,26.9L0.3,53.2z"/>
</svg>
