<svg id="Camada_1" xmlns="http://www.w3.org/2000/svg" viewBox="0 0 223 140" enable-background="new 0 0 223 140"><style>.st0{fill:#fff;filter:url(#Adobe_OpacityMaskFilter)}.st1{mask:url(#path-1-inside-1_12_531_1_);fill:none;stroke:#ff6052;stroke-width:2}</style><defs><filter id="Adobe_OpacityMaskFilter" filterUnits="userSpaceOnUse" x="-.9" y="-.6" width="224.9" height="141.4"><feColorMatrix values="1 0 0 0 0 0 1 0 0 0 0 0 1 0 0 0 0 0 1 0"/></filter></defs><mask maskUnits="userSpaceOnUse" x="-.9" y="-.6" width="224.9" height="141.4" id="path-1-inside-1_12_531_1_"><path class="st0" d="M.3 53.2c7 29.1 25.2 54.3 50.8 69.9s56.2 20.5 85.3 13.6c29.1-7 54.3-25.2 69.9-50.8C222 60.4 226.8 29.7 219.9.6L110.1 26.9.3 53.2z"/></mask><path class="st1" d="M.3 53.2c7 29.1 25.2 54.3 50.8 69.9s56.2 20.5 85.3 13.6c29.1-7 54.3-25.2 69.9-50.8C222 60.4 226.8 29.7 219.9.6L110.1 26.9.3 53.2z"/></svg>