<?xml version="1.0" encoding="UTF-8"?><!DOCTYPE svg PUBLIC "-//W3C//DTD SVG 1.1//EN" "http://www.w3.org/Graphics/SVG/1.1/DTD/svg11.dtd"><svg xmlns="http://www.w3.org/2000/svg"><symbol id="arrow-outline" viewBox="0 0 24 24"><path d="M16 10l-4-4m0 0l-4 4m4-4v12"/></symbol><symbol id="arrow" viewBox="0 0 24 24"><path d="M10 16l4-4-4-4"/></symbol><symbol id="email-post" viewBox="0 0 24 24"><path clip-rule="evenodd" d="M2 6.222c0 .667.333 1.222.889 1.667l6.667 4.555c1.555 1 3.444 1 5 0L21.222 8c.445-.556.778-1.111.778-1.778 0-1.11-.889-2-2-2H4c-1.111 0-2 .89-2 2z" stroke="#FF6052" stroke-width="1.5" stroke-linecap="round" stroke-linejoin="round"/><path d="M2 6.444v11.111c0 1.223 1 2.223 2.222 2.223h15.556c1.222 0 2.222-1 2.222-2.223V6.445M2.653 19.124l6.771-6.77M14.622 12.4l6.724 6.724" stroke="#FF6052" stroke-width="1.5" stroke-linecap="round" stroke-linejoin="round"/></symbol><symbol id="email" viewBox="0 0 24 24"><path clip-rule="evenodd" d="M15.374 12.718l4.506-3.055A2.551 2.551 0 0 0 18.45 5H5.566a2.55 2.55 0 1 0-1.431 4.663l4.506 3.055a6 6 0 0 0 6.733 0z" stroke="#FF6052" stroke-width="1.5" stroke-linecap="round" stroke-linejoin="round"/><path d="M3 7.551V17a3 3 0 0 0 3 3h12a3 3 0 0 0 3-3V7.552" stroke="#FF6052" stroke-width="1.5" stroke-linecap="round" stroke-linejoin="round"/></symbol><symbol id="facebook-post" viewBox="0 0 24 24"><path clip-rule="evenodd" d="M7.5 3h9.004A4.496 4.496 0 0 1 21 7.496v9.009A4.496 4.496 0 0 1 16.504 21H7.496A4.496 4.496 0 0 1 3 16.504V7.5A4.5 4.5 0 0 1 7.5 3z" stroke="#FF6052" stroke-width="1.5" stroke-linecap="round" stroke-linejoin="round"/><path d="M11.1 12.9h5.4M16.5 8.4h-.945a2.655 2.655 0 0 0-2.655 2.655V21" stroke="#FF6052" stroke-width="1.5" stroke-linecap="round" stroke-linejoin="round"/></symbol><symbol id="facebook" viewBox="0 0 24 24"><path d="M13.277 20.368v-7.95h2.682l.399-3.113h-3.081V7.322c0-.898.25-1.513 1.54-1.513h1.633V3.034a21.67 21.67 0 0 0-2.393-.124c-2.371 0-3.999 1.448-3.999 4.105v2.284H7.394v3.113h2.67v7.956h3.213z"/></symbol><symbol id="instagram" viewBox="0 0 24 24"><path d="M12.2 7.156a4.485 4.485 0 1 0 0 8.971 4.485 4.485 0 0 0 0-8.97zm0 7.399a2.914 2.914 0 1 1 0-5.828 2.914 2.914 0 0 1 0 5.828zM16.864 8.037a1.046 1.046 0 1 0 0-2.092 1.046 1.046 0 0 0 0 2.092z"/><path d="M20.479 5.928a4.466 4.466 0 0 0-2.555-2.553 6.408 6.408 0 0 0-2.12-.408c-.934-.04-1.23-.052-3.599-.052s-2.672 0-3.599.052a6.358 6.358 0 0 0-2.118.408 4.462 4.462 0 0 0-2.555 2.553 6.388 6.388 0 0 0-.406 2.12c-.042.934-.054 1.23-.054 3.6 0 2.368 0 2.67.054 3.598.015.726.151 1.442.406 2.122A4.471 4.471 0 0 0 6.49 19.92a6.385 6.385 0 0 0 2.12.437c.933.04 1.23.053 3.598.053 2.369 0 2.672 0 3.599-.053a6.415 6.415 0 0 0 2.12-.407 4.475 4.475 0 0 0 2.555-2.554 6.387 6.387 0 0 0 .406-2.12c.042-.934.054-1.23.054-3.6s0-2.67-.054-3.598a6.383 6.383 0 0 0-.408-2.151zm-1.182 9.247a4.89 4.89 0 0 1-.302 1.637 2.896 2.896 0 0 1-1.66 1.66 4.835 4.835 0 0 1-1.62.301c-.922.043-1.182.054-3.545.054-2.365 0-2.606 0-3.545-.054a4.811 4.811 0 0 1-1.62-.301 2.896 2.896 0 0 1-1.667-1.66 4.927 4.927 0 0 1-.302-1.619c-.041-.922-.051-1.181-.051-3.545s0-2.605.051-3.545a4.887 4.887 0 0 1 .302-1.637 2.897 2.897 0 0 1 1.668-1.66 4.86 4.86 0 0 1 1.619-.302c.922-.042 1.181-.053 3.545-.053s2.607 0 3.545.053a4.812 4.812 0 0 1 1.62.302 2.901 2.901 0 0 1 1.66 1.66c.191.52.293 1.067.302 1.62.042.922.052 1.18.052 3.545 0 2.363 0 2.617-.041 3.544h-.01z"/></symbol><symbol id="linkedin-post" viewBox="0 0 24 24"><path clip-rule="evenodd" d="M7.5 3h9.004A4.496 4.496 0 0 1 21 7.496v9.009A4.496 4.496 0 0 1 16.504 21H7.496A4.496 4.496 0 0 1 3 16.504V7.5A4.5 4.5 0 0 1 7.5 3z" stroke="#FF6052" stroke-width="1.5" stroke-linecap="round" stroke-linejoin="round"/><path d="M8.12 11.1v5.4M11.719 16.5v-3.15a2.25 2.25 0 1 1 4.5 0v3.15M8.118 7.838a.225.225 0 1 0 .226.225.225.225 0 0 0-.226-.225" stroke="#FF6052" stroke-width="1.5" stroke-linecap="round" stroke-linejoin="round"/></symbol><symbol id="pb" viewBox="0 0 24 24"><path d="M18.364 5.636a9 9 0 0 1 0 12.728 9 9 0 1 1 0-12.728M12 3v18M3.95 8H12M3 12h9M3.95 16H12"/></symbol><symbol id="search" viewBox="0 0 18 18"><path d="M8.111 15.222A7.111 7.111 0 1 0 8.111 1a7.111 7.111 0 0 0 0 14.222zM17 17l-3.867-3.867"/></symbol><symbol id="share-post" viewBox="0 0 15 17"><path d="M11.781 5.313a2.156 2.156 0 1 0 0-4.313 2.156 2.156 0 0 0 0 4.313zM3.156 10.344a2.156 2.156 0 1 0 0-4.313 2.156 2.156 0 0 0 0 4.313zM11.781 15.375a2.156 2.156 0 1 0 0-4.313 2.156 2.156 0 0 0 0 4.313zM5.018 9.273l4.909 2.86M9.92 4.242l-4.902 2.86" stroke="#585858" stroke-width="1.5" stroke-linecap="round" stroke-linejoin="round"/></symbol><symbol id="twitter-post" viewBox="0 0 24 24"><path d="M19.95 9.35a.75.75 0 0 0-1.5 0h1.5zM3.606 16.108a.75.75 0 0 0-1.212.884l1.212-.884zm-.733-.297a.75.75 0 1 0 .254 1.478l-.254-1.478zM5.7 15.65l.238.711a.75.75 0 0 0 .295-1.239l-.533.528zm-.9-10.8l.66-.355a.75.75 0 0 0-1.27-.082l.61.437zm5.4 4.5l-.177.729a.75.75 0 0 0 .927-.704l-.75-.025zm8.1-2.7l-.626.413a.75.75 0 0 0 .626.337v-.75zm2.7 0l.624.416A.75.75 0 0 0 21 5.9v.75zm-2.424 2.284a.75.75 0 1 0 1.248.832l-1.248-.832zm-.126.416c0 3.012-.86 5.521-2.4 7.266C14.52 18.35 12.26 19.4 9.3 19.4v1.5c3.34 0 6.03-1.2 7.875-3.291 1.835-2.08 2.775-4.971 2.775-8.259h-1.5zM9.3 19.4c-1.655 0-2.763-.428-3.595-1.017-.856-.605-1.467-1.41-2.1-2.275l-1.21.884c.624.856 1.363 1.851 2.443 2.616 1.103.78 2.517 1.292 4.462 1.292v-1.5zm-6.173-2.11c.024-.005.043-.01.049-.01l.02-.006a.757.757 0 0 0 .037-.011l.033-.01.093-.03.312-.104a699.726 699.726 0 0 0 2.152-.72l.085-.028.023-.007.005-.002h.002L5.7 15.65l-.238-.711H5.46l-.006.002-.022.008-.085.028-.303.102-.92.308a728.78 728.78 0 0 1-1.234.41l-.085.028-.018.006.005-.002a.51.51 0 0 1 .033-.008l.048-.01.254 1.478zm3.106-2.167C3.49 12.349 3.284 8.256 5.41 5.287l-1.22-.874c-2.542 3.551-2.291 8.46.977 11.764l1.066-1.054zM4.14 5.205c1.18 2.195 3.4 4.27 5.884 4.874l.354-1.458C8.41 8.143 6.495 6.418 5.461 4.495l-1.322.71zm6.81 4.17c.038-1.136.439-2.075 1.075-2.725.632-.646 1.538-1.05 2.676-1.05V4.1c-1.513 0-2.814.546-3.748 1.5-.93.95-1.453 2.261-1.502 3.725l1.5.05zM14.7 5.6c.806 0 1.396.153 1.849.395.451.24.813.594 1.125 1.068l1.252-.826c-.42-.638-.957-1.185-1.67-1.566-.713-.38-1.557-.571-2.556-.571v1.5zm3.6 1.8H21V5.9h-2.7v1.5zm2.076-1.166l-1.8 2.7 1.248.832 1.8-2.7-1.248-.832z"/></symbol><symbol id="whatsapp" viewBox="0 0 24 24"><path fill-rule="evenodd" clip-rule="evenodd" d="M17.852 5.464a8.653 8.653 0 0 0-6.16-2.554c-4.8 0-8.707 3.907-8.71 8.708 0 1.535.402 3.033 1.163 4.354L2.91 20.484l4.617-1.212a8.712 8.712 0 0 0 4.161 1.06h.004c4.799 0 8.706-3.906 8.708-8.708a8.659 8.659 0 0 0-2.548-6.16zm-6.16 13.399h-.003a7.224 7.224 0 0 1-3.684-1.01l-.264-.157-2.74.718.731-2.67-.172-.274a7.225 7.225 0 0 1-1.106-3.852c.001-3.99 3.248-7.237 7.24-7.237a7.19 7.19 0 0 1 5.118 2.122 7.197 7.197 0 0 1 2.118 5.121c-.002 3.991-3.25 7.239-7.238 7.239zm3.97-5.422c-.218-.11-1.287-.635-1.487-.708-.199-.073-.343-.109-.489.109-.145.217-.562.707-.69.852-.126.146-.253.163-.47.055-.218-.11-.92-.339-1.75-1.08-.648-.577-1.084-1.29-1.211-1.508-.127-.218-.014-.335.096-.444.098-.097.217-.254.326-.381.108-.127.144-.217.217-.363.073-.145.037-.272-.019-.381-.054-.11-.49-1.18-.67-1.616-.176-.422-.356-.366-.49-.372a9.359 9.359 0 0 0-.416-.007.801.801 0 0 0-.58.271c-.2.218-.762.744-.762 1.815s.78 2.106.888 2.252c.109.145 1.535 2.342 3.718 3.285.52.224.925.358 1.24.459.521.166.995.142 1.37.086.419-.062 1.288-.526 1.47-1.034.18-.508.18-.944.127-1.035-.055-.091-.201-.146-.417-.255z"/></symbol><symbol id="youtube" viewBox="0 0 32 32"><path clip-rule="evenodd" d="M28.777 8.497c-.305-1.338-1.21-2.394-2.358-2.757-2.08-.65-10.42-.65-10.42-.65s-8.335 0-10.418.65c-1.145.357-2.05 1.413-2.359 2.757C2.667 10.927 2.667 16 2.667 16s0 5.073.556 7.503c.305 1.338 1.209 2.394 2.358 2.757 2.083.65 10.419.65 10.419.65s8.34 0 10.419-.65c1.145-.357 2.049-1.413 2.358-2.757.556-2.43.556-7.503.556-7.503s0-5.073-.556-7.503z" stroke="#767676" stroke-width="1.5" stroke-linecap="round" stroke-linejoin="round"/><path clip-rule="evenodd" d="M13.336 20l6.928-4-6.928-4v8z" stroke="#767676" stroke-width="1.5" stroke-linecap="round" stroke-linejoin="round"/></symbol></svg>