<svg width="24" height="24" viewBox="0 0 24 24" fill="none" xmlns="http://www.w3.org/2000/svg">
<path fill-rule="evenodd" clip-rule="evenodd" d="M2 6.22217V6.22217C2 6.88883 2.33333 7.44439 2.88889 7.88883L9.55556 12.4444C11.1111 13.4444 13 13.4444 14.5556 12.4444L21.2222 7.99995C21.6667 7.44439 22 6.88883 22 6.22217V6.22217C22 5.11106 21.1111 4.22217 20 4.22217H4C2.88889 4.22217 2 5.11106 2 6.22217Z" stroke="#FF6052" stroke-width="1.5" stroke-linecap="round" stroke-linejoin="round"/>
<path d="M2 6.44434V17.5554C2 18.7777 3 19.7777 4.22222 19.7777H19.7778C21 19.7777 22 18.7777 22 17.5554V6.44434" stroke="#FF6052" stroke-width="1.5" stroke-linecap="round" stroke-linejoin="round"/>
<path d="M2.65332 19.1244L9.42443 12.3533" stroke="#FF6052" stroke-width="1.5" stroke-linecap="round" stroke-linejoin="round"/>
<path d="M14.6221 12.3999L21.3465 19.1243" stroke="#FF6052" stroke-width="1.5" stroke-linecap="round" stroke-linejoin="round"/>
</svg>
