<svg width="24" height="24" viewBox="0 0 24 24" fill="none" xmlns="http://www.w3.org/2000/svg">
<path d="M12.2004 7.15625C11.0107 7.15625 9.86982 7.62883 9.02862 8.47003C8.18742 9.31123 7.71484 10.4521 7.71484 11.6418C7.71484 12.8314 8.18742 13.9723 9.02862 14.8135C9.86982 15.6547 11.0107 16.1273 12.2004 16.1273C13.39 16.1273 14.5309 15.6547 15.3721 14.8135C16.2133 13.9723 16.6859 12.8314 16.6859 11.6418C16.6859 10.4521 16.2133 9.31123 15.3721 8.47003C14.5309 7.62883 13.39 7.15625 12.2004 7.15625ZM12.2004 14.5548C11.4275 14.5548 10.6863 14.2478 10.1398 13.7013C9.59334 13.1548 9.28633 12.4137 9.28633 11.6408C9.28633 10.8679 9.59334 10.1268 10.1398 9.58027C10.6863 9.03378 11.4275 8.72676 12.2004 8.72676C12.9732 8.72676 13.7144 9.03378 14.2609 9.58027C14.8074 10.1268 15.1144 10.8679 15.1144 11.6408C15.1144 12.4137 14.8074 13.1548 14.2609 13.7013C13.7144 14.2478 12.9732 14.5548 12.2004 14.5548Z" fill="#FF6052"/>
<path d="M16.8636 8.03674C17.4411 8.03674 17.9093 7.56856 17.9093 6.99103C17.9093 6.41349 17.4411 5.94531 16.8636 5.94531C16.2861 5.94531 15.8179 6.41349 15.8179 6.99103C15.8179 7.56856 16.2861 8.03674 16.8636 8.03674Z" fill="#FF6052"/>
<path d="M20.4786 5.92802C20.2541 5.3481 19.9109 4.82147 19.4711 4.38181C19.0313 3.94216 18.5045 3.59919 17.9245 3.37484C17.2458 3.12007 16.5288 2.9823 15.804 2.96742C14.8698 2.92668 14.5739 2.91504 12.2051 2.91504C9.8362 2.91504 9.53257 2.91504 8.60617 2.96742C7.88192 2.98154 7.16541 3.11933 6.48758 3.37484C5.90743 3.59893 5.38052 3.94181 4.94067 4.38149C4.50082 4.82118 4.15773 5.34795 3.93343 5.92802C3.6786 6.60668 3.54116 7.32377 3.52698 8.04855C3.48527 8.98174 3.47266 9.27761 3.47266 11.6474C3.47266 14.0163 3.47266 14.318 3.52698 15.2463C3.54153 15.9719 3.67831 16.6878 3.93343 17.3678C4.15836 17.9477 4.50178 18.4743 4.94174 18.9139C5.3817 19.3535 5.90852 19.6965 6.48855 19.921C7.1651 20.186 7.8819 20.3337 8.60811 20.3575C9.54227 20.3983 9.83814 20.4109 12.207 20.4109C14.5759 20.4109 14.8795 20.4109 15.8059 20.3575C16.5306 20.3428 17.2476 20.2054 17.9264 19.9511C18.5063 19.7262 19.0329 19.383 19.4727 18.9432C19.9124 18.5034 20.2557 17.9768 20.4806 17.3969C20.7357 16.7179 20.8725 16.002 20.887 15.2764C20.9287 14.3432 20.9414 14.0474 20.9414 11.6775C20.9414 9.30768 20.9414 9.00697 20.887 8.07863C20.8757 7.34359 20.7376 6.61603 20.4786 5.92802ZM19.2971 15.1746C19.2909 15.7336 19.1888 16.2874 18.9954 16.812C18.8498 17.1892 18.6267 17.5318 18.3407 17.8176C18.0547 18.1035 17.712 18.3263 17.3347 18.4718C16.8159 18.6643 16.268 18.7663 15.7147 18.7734C14.7932 18.8161 14.5332 18.8268 12.1701 18.8268C9.80516 18.8268 9.56361 18.8268 8.6246 18.7734C8.0716 18.7667 7.52391 18.6646 7.00559 18.4718C6.62696 18.3272 6.2829 18.1048 5.99566 17.8189C5.70841 17.533 5.48438 17.1899 5.33807 16.812C5.1474 16.2931 5.04541 15.7458 5.03638 15.193C4.99467 14.2714 4.98497 14.0115 4.98497 11.6484C4.98497 9.2844 4.98497 9.04286 5.03638 8.10288C5.04265 7.54415 5.14469 6.99063 5.33807 6.4664C5.63393 5.70103 6.24021 5.09863 7.00559 4.80567C7.52417 4.61374 8.0717 4.51171 8.6246 4.50398C9.54712 4.46227 9.80613 4.45063 12.1701 4.45063C14.5342 4.45063 14.7767 4.45063 15.7147 4.50398C16.268 4.51064 16.8161 4.6127 17.3347 4.80567C17.712 4.95144 18.0546 5.17449 18.3406 5.46048C18.6266 5.74648 18.8497 6.08912 18.9954 6.4664C19.1861 6.98533 19.2881 7.53264 19.2971 8.08542C19.3388 9.00794 19.3495 9.26694 19.3495 11.631C19.3495 13.994 19.3495 14.2482 19.3078 15.1755H19.2971V15.1746Z" fill="#FF6052"/>
</svg>
