<svg width="15" height="17" viewBox="0 0 15 17" fill="none" xmlns="http://www.w3.org/2000/svg">
<path d="M11.7812 5.3125C12.9721 5.3125 13.9375 4.34711 13.9375 3.15625C13.9375 1.96539 12.9721 1 11.7812 1C10.5904 1 9.625 1.96539 9.625 3.15625C9.625 4.34711 10.5904 5.3125 11.7812 5.3125Z" stroke="#585858" stroke-width="1.5" stroke-linecap="round" stroke-linejoin="round"/>
<path d="M3.15625 10.3438C4.34711 10.3438 5.3125 9.37836 5.3125 8.1875C5.3125 6.99664 4.34711 6.03125 3.15625 6.03125C1.96539 6.03125 1 6.99664 1 8.1875C1 9.37836 1.96539 10.3438 3.15625 10.3438Z" stroke="#585858" stroke-width="1.5" stroke-linecap="round" stroke-linejoin="round"/>
<path d="M11.7812 15.375C12.9721 15.375 13.9375 14.4096 13.9375 13.2188C13.9375 12.0279 12.9721 11.0625 11.7812 11.0625C10.5904 11.0625 9.625 12.0279 9.625 13.2188C9.625 14.4096 10.5904 15.375 11.7812 15.375Z" stroke="#585858" stroke-width="1.5" stroke-linecap="round" stroke-linejoin="round"/>
<path d="M5.01758 9.27283L9.92664 12.1335" stroke="#585858" stroke-width="1.5" stroke-linecap="round" stroke-linejoin="round"/>
<path d="M9.91945 4.24158L5.01758 7.1022" stroke="#585858" stroke-width="1.5" stroke-linecap="round" stroke-linejoin="round"/>
</svg>
