<svg width="24" height="24" viewBox="0 0 24 24" fill="none" xmlns="http://www.w3.org/2000/svg">
<path fill-rule="evenodd" clip-rule="evenodd" d="M17.8519 5.46433C17.0451 4.65229 16.0853 4.0084 15.0279 3.56996C13.9705 3.13153 12.8367 2.90727 11.692 2.91018C6.89222 2.91018 2.98485 6.81658 2.98291 11.6183C2.98291 13.153 3.38354 14.6507 4.14503 15.9719L2.91016 20.4836L7.52663 19.2721C8.80361 19.9672 10.2342 20.3317 11.6882 20.3323H11.692C16.4909 20.3323 20.3983 16.4259 20.4002 11.6242C20.4035 10.48 20.18 9.34647 19.7426 8.28918C19.3052 7.23189 18.6626 6.27178 17.8519 5.46433ZM11.692 18.8627H11.6891C10.3927 18.8628 9.12007 18.514 8.00487 17.8529L7.74102 17.6957L5.00159 18.4145L5.73204 15.744L5.56034 15.4704C4.8355 14.3165 4.4518 12.9811 4.45351 11.6183C4.45545 7.62755 7.70221 4.38078 11.6949 4.38078C12.6458 4.37867 13.5877 4.56517 14.466 4.92949C15.3444 5.29382 16.1417 5.82872 16.812 6.50326C17.4858 7.17457 18.0199 7.97278 18.3833 8.85175C18.7468 9.73072 18.9325 10.673 18.9296 11.6242C18.9277 15.615 15.6809 18.8627 11.692 18.8627ZM15.6625 13.4411C15.4442 13.3315 14.3752 12.8057 14.1754 12.7329C13.9765 12.6602 13.832 12.6243 13.6865 12.8416C13.541 13.0589 13.1238 13.5487 12.9968 13.6943C12.8697 13.8398 12.7426 13.8572 12.5253 13.7486C12.308 13.6399 11.6067 13.41 10.7753 12.6689C10.1283 12.0917 9.69179 11.3797 9.56471 11.1614C9.43764 10.9432 9.55113 10.8258 9.66075 10.7172C9.75872 10.6202 9.87804 10.463 9.98669 10.3359C10.0953 10.2089 10.1312 10.1186 10.204 9.97313C10.2767 9.82763 10.2408 9.70055 10.1855 9.5919C10.1312 9.48229 9.69567 8.41135 9.51427 7.9758C9.33869 7.55382 9.15923 7.61009 9.02536 7.60427C8.88672 7.5986 8.74797 7.59601 8.60921 7.59651C8.49887 7.59932 8.39031 7.62489 8.29032 7.67163C8.19033 7.71837 8.10107 7.78527 8.02815 7.86812C7.82832 8.08638 7.26666 8.61215 7.26666 9.68309C7.26666 10.754 8.04658 11.7891 8.15523 11.9346C8.26387 12.0801 9.68985 14.2773 11.8725 15.2201C12.3924 15.4442 12.7979 15.5781 13.1132 15.679C13.6341 15.8449 14.1084 15.8206 14.4838 15.7653C14.9019 15.7032 15.7711 15.2395 15.9525 14.7312C16.1339 14.2229 16.1339 13.7874 16.0796 13.6962C16.0253 13.605 15.8788 13.5497 15.6625 13.4411Z" fill="#FF6052"/>
</svg>
