<svg width="32" height="32" viewBox="0 0 32 32" fill="none" xmlns="http://www.w3.org/2000/svg">
<path fill-rule="evenodd" clip-rule="evenodd" d="M28.7772 8.49733C28.4718 7.15867 27.5678 6.10267 26.4185 5.74C24.3398 5.09067 15.9998 5.09067 15.9998 5.09067C15.9998 5.09067 7.66384 5.09067 5.58117 5.74C4.43584 6.09733 3.53184 7.15333 3.2225 8.49733C2.6665 10.9267 2.6665 16 2.6665 16C2.6665 16 2.6665 21.0733 3.2225 23.5027C3.52784 24.8413 4.43184 25.8973 5.58117 26.26C7.66384 26.9093 15.9998 26.9093 15.9998 26.9093C15.9998 26.9093 24.3398 26.9093 26.4185 26.26C27.5638 25.9027 28.4678 24.8467 28.7772 23.5027C29.3332 21.0733 29.3332 16 29.3332 16C29.3332 16 29.3332 10.9267 28.7772 8.49733Z" stroke="#767676" stroke-width="1.5" stroke-linecap="round" stroke-linejoin="round"/>
<path fill-rule="evenodd" clip-rule="evenodd" d="M13.3359 20L20.2639 16L13.3359 12V20Z" stroke="#767676" stroke-width="1.5" stroke-linecap="round" stroke-linejoin="round"/>
</svg>
